<svg xmlns="http://www.w3.org/2000/svg" viewBox="0 0 1200 320" width="1200" height="320"><defs><linearGradient id="bg" x1="0" y1="0" x2="1" y2="1"><stop offset="0%" stop-color="#0d0d10"/><stop offset="100%" stop-color="#1a1226"/></linearGradient><linearGradient id="accent" x1="0" y1="0" x2="1" y2="0"><stop offset="0%" stop-color="#8b5cf6"/><stop offset="50%" stop-color="#a78bfa"/><stop offset="100%" stop-color="#c4b5fd"/></linearGradient><linearGradient id="card" x1="0" y1="0" x2="0" y2="1"><stop offset="0%" stop-color="#21212c"/><stop offset="100%" stop-color="#17171f"/></linearGradient><filter id="glow" x="-50%" y="-50%" width="200%" height="200%"><feGaussianBlur stdDeviation="6" result="b"/><feMerge><feMergeNode in="b"/><feMergeNode in="SourceGraphic"/></feMerge></filter></defs><rect width="1200" height="320" fill="url(#bg)"/><circle cx="120" cy="60" r="180" fill="#8b5cf6" opacity="0.08"/><circle cx="1080" cy="280" r="220" fill="#8b5cf6" opacity="0.06"/><g transform="translate(60,70)"><rect width="260" height="180" rx="18" fill="url(#card)" stroke="#28283a"/><text x="20" y="48" fill="#eeeef5" font-family="Segoe UI, sans-serif" font-size="28" font-weight="700">Hello</text><path d="M20 78 L40 78 M34 72 L40 78 L34 84" stroke="#8b5cf6" stroke-width="2.4" fill="none" stroke-linecap="round"/><text x="52" y="84" fill="#a78bfa" font-family="Segoe UI, sans-serif" font-size="20" font-weight="600">Привет</text><text x="20" y="115" fill="#eeeef5" font-family="Segoe UI, sans-serif" font-size="12">«Привет, странник…»</text><text x="20" y="135" fill="#68687a" font-family="Segoe UI, sans-serif" font-size="11" font-style="italic">Hello, traveler…</text><rect x="20" y="148" width="100" height="22" rx="6" fill="#21212c" stroke="#28283a"/><text x="70" y="163" fill="#68687a" font-family="Segoe UI, sans-serif" font-size="11" text-anchor="middle">Закрыть</text><rect x="135" y="148" width="105" height="22" rx="6" fill="#8b5cf6"/><text x="187" y="163" fill="#fff" font-family="Segoe UI, sans-serif" font-size="11" text-anchor="middle" font-weight="600">Добавить</text></g><g transform="translate(600,140)" text-anchor="middle"><text fill="url(#accent)" font-family="Segoe UI, sans-serif" font-size="62" font-weight="800" filter="url(#glow)">Переводчик</text><text y="42" fill="#eeeef5" font-family="Segoe UI, sans-serif" font-size="22" font-weight="500" letter-spacing="2">НАБОР · SUITE</text><g transform="translate(0,75)"><rect x="-130" y="-14" width="120" height="28" rx="14" fill="#21212c" stroke="#8b5cf6"/><text x="-70" y="5" fill="#a78bfa" font-family="Segoe UI, sans-serif" font-size="13" text-anchor="middle" font-weight="600">Слова</text><rect x="10" y="-14" width="120" height="28" rx="14" fill="#21212c" stroke="#8b5cf6"/><text x="70" y="5" fill="#a78bfa" font-family="Segoe UI, sans-serif" font-size="13" text-anchor="middle" font-weight="600">Поля</text></g></g><g transform="translate(880,70)"><rect width="260" height="180" rx="18" fill="url(#card)" stroke="#28283a"/><text x="20" y="32" fill="#68687a" font-family="Segoe UI, sans-serif" font-size="11" font-weight="700" letter-spacing="1.2">ОПИСАНИЕ ПЕРСОНАЖА</text><rect x="20" y="44" width="220" height="80" rx="8" fill="#0d0d10" stroke="#28283a"/><text x="30" y="62" fill="#68687a" font-family="Segoe UI, sans-serif" font-size="11">A mysterious wanderer</text><text x="30" y="78" fill="#68687a" font-family="Segoe UI, sans-serif" font-size="11">from distant lands…</text><g transform="translate(206,90)"><rect width="28" height="28" rx="7" fill="#8b5cf6"/><text x="14" y="20" fill="#fff" font-family="Segoe UI, sans-serif" font-size="14" text-anchor="middle" font-weight="700">A</text></g><rect x="20" y="138" width="220" height="26" rx="7" fill="#8b5cf6"/><text x="130" y="155" fill="#fff" font-family="Segoe UI, sans-serif" font-size="12" text-anchor="middle" font-weight="600">Перевести поле</text></g><text x="600" y="295" fill="#68687a" font-family="Segoe UI, sans-serif" font-size="13" letter-spacing="1.5" text-anchor="middle">Google · MyMemory · LibreTranslate · DeepL · Yandex · Custom AI</text></svg>